<?xml version="1.0" encoding="utf-8"?><svg viewBox="0 0 502.66 502.66" xmlns="http://www.w3.org/2000/svg" xmlns:xlink="http://www.w3.org/1999/xlink"><style>:root>svg{display:none}:root>svg:target{display:block}</style><svg viewBox="0 0 100 100" preserveAspectRatio="xMidYMid" id="Spin" xmlns="http://www.w3.org/2000/svg"><g transform="translate(80 50)"><circle r="6"><animateTransform attributeName="transform" type="scale" begin="-0.8333333333333334s" values="1.76 1.76;1 1" keyTimes="0;1" dur="1s" repeatCount="indefinite"/><animate attributeName="fill-opacity" keyTimes="0;1" dur="1s" repeatCount="indefinite" values="1;0" begin="-0.8333333333333334s"/></circle></g><g transform="rotate(60 -33.301 94.282)"><circle r="6" fill-opacity=".833"><animateTransform attributeName="transform" type="scale" begin="-0.6666666666666666s" values="1.76 1.76;1 1" keyTimes="0;1" dur="1s" repeatCount="indefinite"/><animate attributeName="fill-opacity" keyTimes="0;1" dur="1s" repeatCount="indefinite" values="1;0" begin="-0.6666666666666666s"/></circle></g><g transform="rotate(120 -4.434 48.094)"><circle r="6" fill-opacity=".667"><animateTransform attributeName="transform" type="scale" begin="-0.5s" values="1.76 1.76;1 1" keyTimes="0;1" dur="1s" repeatCount="indefinite"/><animate attributeName="fill-opacity" keyTimes="0;1" dur="1s" repeatCount="indefinite" values="1;0" begin="-0.5s"/></circle></g><g transform="rotate(180 10 25)"><circle r="6" fill-opacity=".5"><animateTransform attributeName="transform" type="scale" begin="-0.3333333333333333s" values="1.76 1.76;1 1" keyTimes="0;1" dur="1s" repeatCount="indefinite"/><animate attributeName="fill-opacity" keyTimes="0;1" dur="1s" repeatCount="indefinite" values="1;0" begin="-0.3333333333333333s"/></circle></g><g transform="rotate(-120 24.434 1.906)"><circle r="6" fill-opacity=".333"><animateTransform attributeName="transform" type="scale" begin="-0.16666666666666666s" values="1.76 1.76;1 1" keyTimes="0;1" dur="1s" repeatCount="indefinite"/><animate attributeName="fill-opacity" keyTimes="0;1" dur="1s" repeatCount="indefinite" values="1;0" begin="-0.16666666666666666s"/></circle></g><g transform="rotate(-60 53.301 -44.282)"><circle r="6" fill-opacity=".167"><animateTransform attributeName="transform" type="scale" begin="0s" values="1.76 1.76;1 1" keyTimes="0;1" dur="1s" repeatCount="indefinite"/><animate attributeName="fill-opacity" keyTimes="0;1" dur="1s" repeatCount="indefinite" values="1;0" begin="0s"/></circle></g></svg><svg viewBox="0 0 100 100" preserveAspectRatio="xMidYMid" id="Spinner-1s-44px" xmlns="http://www.w3.org/2000/svg"><rect x="47" y="24" rx="3" ry="6" width="6" height="12"><animate attributeName="opacity" values="1;0" keyTimes="0;1" dur="1s" begin="-0.9166666666666666s" repeatCount="indefinite"/></rect><rect x="47" y="24" rx="3" ry="6" width="6" height="12" transform="rotate(30 50 50)"><animate attributeName="opacity" values="1;0" keyTimes="0;1" dur="1s" begin="-0.8333333333333334s" repeatCount="indefinite"/></rect><rect x="47" y="24" rx="3" ry="6" width="6" height="12" transform="rotate(60 50 50)"><animate attributeName="opacity" values="1;0" keyTimes="0;1" dur="1s" begin="-0.75s" repeatCount="indefinite"/></rect><rect x="47" y="24" rx="3" ry="6" width="6" height="12" transform="rotate(90 50 50)"><animate attributeName="opacity" values="1;0" keyTimes="0;1" dur="1s" begin="-0.6666666666666666s" repeatCount="indefinite"/></rect><rect x="47" y="24" rx="3" ry="6" width="6" height="12" transform="rotate(120 50 50)"><animate attributeName="opacity" values="1;0" keyTimes="0;1" dur="1s" begin="-0.5833333333333334s" repeatCount="indefinite"/></rect><rect x="47" y="24" rx="3" ry="6" width="6" height="12" transform="rotate(150 50 50)"><animate attributeName="opacity" values="1;0" keyTimes="0;1" dur="1s" begin="-0.5s" repeatCount="indefinite"/></rect><rect x="47" y="24" rx="3" ry="6" width="6" height="12" transform="rotate(180 50 50)"><animate attributeName="opacity" values="1;0" keyTimes="0;1" dur="1s" begin="-0.4166666666666667s" repeatCount="indefinite"/></rect><rect x="47" y="24" rx="3" ry="6" width="6" height="12" transform="rotate(210 50 50)"><animate attributeName="opacity" values="1;0" keyTimes="0;1" dur="1s" begin="-0.3333333333333333s" repeatCount="indefinite"/></rect><rect x="47" y="24" rx="3" ry="6" width="6" height="12" transform="rotate(240 50 50)"><animate attributeName="opacity" values="1;0" keyTimes="0;1" dur="1s" begin="-0.25s" repeatCount="indefinite"/></rect><rect x="47" y="24" rx="3" ry="6" width="6" height="12" transform="rotate(270 50 50)"><animate attributeName="opacity" values="1;0" keyTimes="0;1" dur="1s" begin="-0.16666666666666666s" repeatCount="indefinite"/></rect><rect x="47" y="24" rx="3" ry="6" width="6" height="12" transform="rotate(300 50 50)"><animate attributeName="opacity" values="1;0" keyTimes="0;1" dur="1s" begin="-0.08333333333333333s" repeatCount="indefinite"/></rect><rect x="47" y="24" rx="3" ry="6" width="6" height="12" transform="rotate(330 50 50)"><animate attributeName="opacity" values="1;0" keyTimes="0;1" dur="1s" begin="0s" repeatCount="indefinite"/></rect></svg><svg viewBox="0 0 122 65" id="arrow" xmlns="http://www.w3.org/2000/svg"><path d="M2 1.5a1 1 0 10-2 0h2zm119.854 55.02a1 1 0 00-.334-1.374l-7.689-4.678a1 1 0 10-1.039 1.708l6.834 4.158-4.158 6.835a.999.999 0 101.708 1.04l4.678-7.69zM0 1.5c0 19.908 11.24 38.476 32.025 49.693 20.774 11.21 51.041 15.07 89.212 5.779l-.473-1.944c-37.83 9.209-67.563 5.32-87.789-5.596C12.761 38.524 2 20.592 2 1.5H0z"/></svg><svg viewBox="0 0 502.664 502.664" id="icon" xmlns="http://www.w3.org/2000/svg"><path d="M153.821 358.226L0 274.337v-46.463l153.821-83.414v54.574L46.636 250.523l107.185 53.431v54.272zm26.273 29.358L282.103 115.08h32.227L212.084 387.584h-31.99zm168.749-29.358v-54.272l107.164-52.999-107.164-52.59v-53.927l153.821 83.522v46.183l-153.821 84.083z"/></svg></svg>